<mxfile host="Electron" modified="2024-05-25T12:26:30.448Z" agent="Mozilla/5.0 (Macintosh; Intel Mac OS X 10_15_7) AppleWebKit/537.36 (KHTML, like Gecko) draw.io/24.4.0 Chrome/120.0.6099.109 Electron/28.1.0 Safari/537.36" etag="CtFUlMqAo81ZGpOasnZV" version="24.4.0" type="device">
  <diagram name="main" id="OCeS0OiNu9_R2leDI142">
    <mxGraphModel dx="1100" dy="686" grid="1" gridSize="10" guides="1" tooltips="1" connect="1" arrows="1" fold="1" page="1" pageScale="1" pageWidth="850" pageHeight="1100" math="0" shadow="0">
      <root>
        <mxCell id="0" />
        <mxCell id="1" parent="0" />
        <mxCell id="FscEr2D0NZWF_tFsPN3c-1" value="Reader" style="rounded=1;whiteSpace=wrap;html=1;sketch=0;container=1;recursiveResize=0;verticalAlign=top;arcSize=6;fontStyle=1;autosize=0;points=[];absoluteArcSize=1;shadow=1;strokeColor=#001DBC;fillColor=#0050ef;fontColor=#ffffff;fontFamily=Helvetica;fontSize=11;" vertex="1" parent="1">
          <mxGeometry x="120" y="280" width="130" height="172.5" as="geometry">
            <mxRectangle x="-98" y="-1230" width="99" height="26" as="alternateBounds" />
          </mxGeometry>
        </mxCell>
        <mxCell id="FscEr2D0NZWF_tFsPN3c-2" value="initialize" style="rounded=1;whiteSpace=wrap;html=1;sketch=0;points=[[0,0.5,0,0,0],[1,0.5,0,0,0]];arcSize=50;fontFamily=Helvetica;fontSize=11;fontColor=default;" vertex="1" parent="FscEr2D0NZWF_tFsPN3c-1">
          <mxGeometry x="-10" y="27.5" width="39.25" height="25" as="geometry" />
        </mxCell>
        <mxCell id="FscEr2D0NZWF_tFsPN3c-6" value="request" style="rounded=1;whiteSpace=wrap;html=1;sketch=0;points=[[0,0.5,0,0,0],[1,0.5,0,0,0]];arcSize=50;fontFamily=Helvetica;fontSize=11;fontColor=default;" vertex="1" parent="FscEr2D0NZWF_tFsPN3c-1">
          <mxGeometry x="102" y="32.5" width="39.25" height="25" as="geometry" />
        </mxCell>
        <mxCell id="FscEr2D0NZWF_tFsPN3c-3" value="" style="rounded=1;whiteSpace=wrap;html=1;sketch=0;points=[[0,0.5,0,0,0],[1,0.5,0,0,0]];fillColor=#1ba1e2;fontColor=#ffffff;strokeColor=#006EAF;arcSize=50;fontFamily=Helvetica;fontSize=11;" vertex="1" parent="FscEr2D0NZWF_tFsPN3c-1">
          <mxGeometry x="106" y="57.5" width="35.25" height="25" as="geometry" />
        </mxCell>
        <mxCell id="FscEr2D0NZWF_tFsPN3c-5" value="eof" style="rounded=1;whiteSpace=wrap;html=1;sketch=0;points=[[0,0.5,0,0,0],[1,0.5,0,0,0]];fillColor=#1ba1e2;fontColor=#ffffff;strokeColor=#006EAF;arcSize=50;fontFamily=Helvetica;fontSize=11;" vertex="1" parent="FscEr2D0NZWF_tFsPN3c-1">
          <mxGeometry x="106" y="82.5" width="35.25" height="25" as="geometry" />
        </mxCell>
        <mxCell id="FscEr2D0NZWF_tFsPN3c-4" value="✗" style="rounded=1;whiteSpace=wrap;html=1;sketch=0;points=[[0,0.5,0,0,0],[1,0.5,0,0,0]];fillColor=#1ba1e2;fontColor=#ffffff;strokeColor=#006EAF;arcSize=50;fontFamily=Helvetica;fontSize=11;textOpacity=30;opacity=30;" vertex="1" parent="FscEr2D0NZWF_tFsPN3c-1">
          <mxGeometry x="102" y="132.5" width="35.25" height="25" as="geometry" />
        </mxCell>
        <mxCell id="FscEr2D0NZWF_tFsPN3c-7" value="Writer" style="rounded=1;whiteSpace=wrap;html=1;sketch=0;container=1;recursiveResize=0;verticalAlign=top;arcSize=6;fontStyle=1;autosize=0;points=[];absoluteArcSize=1;shadow=1;strokeColor=#001DBC;fillColor=#0050ef;fontColor=#ffffff;fontFamily=Helvetica;fontSize=11;" vertex="1" parent="1">
          <mxGeometry x="360" y="280" width="130" height="172.5" as="geometry">
            <mxRectangle x="-98" y="-1230" width="99" height="26" as="alternateBounds" />
          </mxGeometry>
        </mxCell>
        <mxCell id="FscEr2D0NZWF_tFsPN3c-8" value="" style="rounded=1;whiteSpace=wrap;html=1;sketch=0;points=[[0,0.5,0,0,0],[1,0.5,0,0,0]];arcSize=50;fontFamily=Helvetica;fontSize=11;fontColor=default;" vertex="1" parent="FscEr2D0NZWF_tFsPN3c-7">
          <mxGeometry x="-10" y="57.5" width="39.25" height="25" as="geometry" />
        </mxCell>
        <mxCell id="FscEr2D0NZWF_tFsPN3c-9" value="go" style="rounded=1;whiteSpace=wrap;html=1;sketch=0;points=[[0,0.5,0,0,0],[1,0.5,0,0,0]];arcSize=50;fontFamily=Helvetica;fontSize=11;fontColor=default;" vertex="1" parent="FscEr2D0NZWF_tFsPN3c-7">
          <mxGeometry x="102" y="32.5" width="39.25" height="25" as="geometry" />
        </mxCell>
        <mxCell id="FscEr2D0NZWF_tFsPN3c-12" value="✗" style="rounded=1;whiteSpace=wrap;html=1;sketch=0;points=[[0,0.5,0,0,0],[1,0.5,0,0,0]];fillColor=#1ba1e2;fontColor=#ffffff;strokeColor=#006EAF;arcSize=50;fontFamily=Helvetica;fontSize=11;textOpacity=30;opacity=30;" vertex="1" parent="FscEr2D0NZWF_tFsPN3c-7">
          <mxGeometry x="102" y="132.5" width="35.25" height="25" as="geometry" />
        </mxCell>
        <mxCell id="FscEr2D0NZWF_tFsPN3c-13" value="request" style="rounded=1;whiteSpace=wrap;html=1;sketch=0;points=[[0,0.5,0,0,0],[1,0.5,0,0,0]];fillColor=#1ba1e2;fontColor=#ffffff;strokeColor=#006EAF;arcSize=50;fontFamily=Helvetica;fontSize=11;" vertex="1" parent="FscEr2D0NZWF_tFsPN3c-7">
          <mxGeometry x="-10" y="32.5" width="35.25" height="25" as="geometry" />
        </mxCell>
        <mxCell id="FscEr2D0NZWF_tFsPN3c-14" value="eof" style="rounded=1;whiteSpace=wrap;html=1;sketch=0;points=[[0,0.5,0,0,0],[1,0.5,0,0,0]];arcSize=50;fontFamily=Helvetica;fontSize=11;fontColor=default;" vertex="1" parent="FscEr2D0NZWF_tFsPN3c-7">
          <mxGeometry x="-10" y="82.5" width="39.25" height="25" as="geometry" />
        </mxCell>
        <mxCell id="FscEr2D0NZWF_tFsPN3c-15" style="edgeStyle=orthogonalEdgeStyle;rounded=0;orthogonalLoop=1;jettySize=auto;html=1;exitX=0;exitY=0.5;exitDx=0;exitDy=0;exitPerimeter=0;entryX=1;entryY=0.5;entryDx=0;entryDy=0;entryPerimeter=0;" edge="1" parent="1" source="FscEr2D0NZWF_tFsPN3c-13" target="FscEr2D0NZWF_tFsPN3c-6">
          <mxGeometry relative="1" as="geometry" />
        </mxCell>
        <mxCell id="FscEr2D0NZWF_tFsPN3c-16" style="edgeStyle=orthogonalEdgeStyle;rounded=0;orthogonalLoop=1;jettySize=auto;html=1;exitX=1;exitY=0.5;exitDx=0;exitDy=0;exitPerimeter=0;entryX=0;entryY=0.5;entryDx=0;entryDy=0;entryPerimeter=0;" edge="1" parent="1" source="FscEr2D0NZWF_tFsPN3c-3" target="FscEr2D0NZWF_tFsPN3c-8">
          <mxGeometry relative="1" as="geometry" />
        </mxCell>
        <mxCell id="FscEr2D0NZWF_tFsPN3c-17" style="edgeStyle=orthogonalEdgeStyle;rounded=0;orthogonalLoop=1;jettySize=auto;html=1;exitX=1;exitY=0.5;exitDx=0;exitDy=0;exitPerimeter=0;entryX=0;entryY=0.5;entryDx=0;entryDy=0;entryPerimeter=0;" edge="1" parent="1" source="FscEr2D0NZWF_tFsPN3c-5" target="FscEr2D0NZWF_tFsPN3c-14">
          <mxGeometry relative="1" as="geometry" />
        </mxCell>
        <mxCell id="FscEr2D0NZWF_tFsPN3c-18" value="✗" style="rhombus;whiteSpace=wrap;html=1;rounded=1;fillColor=#0050ef;fontColor=#ffffff;strokeColor=#001DBC;fontStyle=1;glass=0;sketch=0;fontSize=12;points=[[0,0.5,0,0,0],[0.5,0,0,0,0],[0.5,1,0,0,0],[1,0.5,0,0,0]];shadow=1;opacity=30;textOpacity=30;" vertex="1" parent="1">
          <mxGeometry x="600" y="480" width="40" height="40" as="geometry" />
        </mxCell>
        <mxCell id="FscEr2D0NZWF_tFsPN3c-19" style="edgeStyle=orthogonalEdgeStyle;rounded=1;orthogonalLoop=1;jettySize=auto;html=1;exitX=1;exitY=0.5;exitDx=0;exitDy=0;exitPerimeter=0;entryX=0;entryY=0.5;entryDx=0;entryDy=0;entryPerimeter=0;curved=0;opacity=30;" edge="1" parent="1" source="FscEr2D0NZWF_tFsPN3c-12" target="FscEr2D0NZWF_tFsPN3c-18">
          <mxGeometry relative="1" as="geometry" />
        </mxCell>
        <mxCell id="FscEr2D0NZWF_tFsPN3c-20" style="edgeStyle=orthogonalEdgeStyle;rounded=1;orthogonalLoop=1;jettySize=auto;html=1;exitX=1;exitY=0.5;exitDx=0;exitDy=0;exitPerimeter=0;entryX=0;entryY=0.5;entryDx=0;entryDy=0;entryPerimeter=0;curved=0;opacity=30;" edge="1" parent="1" source="FscEr2D0NZWF_tFsPN3c-4" target="FscEr2D0NZWF_tFsPN3c-18">
          <mxGeometry relative="1" as="geometry">
            <Array as="points">
              <mxPoint x="300" y="425" />
              <mxPoint x="300" y="500" />
            </Array>
          </mxGeometry>
        </mxCell>
        <mxCell id="FscEr2D0NZWF_tFsPN3c-21" value="go" style="rhombus;whiteSpace=wrap;html=1;rounded=1;fontStyle=1;glass=0;sketch=0;fontSize=12;points=[[0,0.5,0,0,0],[0.5,0,0,0,0],[0.5,1,0,0,0],[1,0.5,0,0,0]];shadow=1;fontFamily=Helvetica;fontColor=default;" vertex="1" parent="1">
          <mxGeometry x="10" y="220" width="40" height="40" as="geometry" />
        </mxCell>
        <mxCell id="FscEr2D0NZWF_tFsPN3c-22" style="edgeStyle=orthogonalEdgeStyle;rounded=1;orthogonalLoop=1;jettySize=auto;html=1;exitX=1;exitY=0.5;exitDx=0;exitDy=0;exitPerimeter=0;entryX=1;entryY=0.5;entryDx=0;entryDy=0;entryPerimeter=0;curved=0;strokeWidth=2;" edge="1" parent="1" source="FscEr2D0NZWF_tFsPN3c-21" target="FscEr2D0NZWF_tFsPN3c-9">
          <mxGeometry relative="1" as="geometry">
            <Array as="points">
              <mxPoint x="540" y="240" />
              <mxPoint x="540" y="325" />
            </Array>
          </mxGeometry>
        </mxCell>
        <mxCell id="FscEr2D0NZWF_tFsPN3c-23" value="filename" style="rhombus;whiteSpace=wrap;html=1;rounded=1;fontStyle=1;glass=0;sketch=0;fontSize=12;points=[[0,0.5,0,0,0],[0.5,0,0,0,0],[0.5,1,0,0,0],[1,0.5,0,0,0]];shadow=1;fontFamily=Helvetica;fontColor=default;" vertex="1" parent="1">
          <mxGeometry x="10" y="300" width="40" height="40" as="geometry" />
        </mxCell>
        <mxCell id="FscEr2D0NZWF_tFsPN3c-24" style="edgeStyle=orthogonalEdgeStyle;rounded=1;orthogonalLoop=1;jettySize=auto;html=1;exitX=1;exitY=0.5;exitDx=0;exitDy=0;exitPerimeter=0;entryX=0;entryY=0.5;entryDx=0;entryDy=0;entryPerimeter=0;curved=0;strokeWidth=2;" edge="1" parent="1" source="FscEr2D0NZWF_tFsPN3c-23" target="FscEr2D0NZWF_tFsPN3c-2">
          <mxGeometry relative="1" as="geometry" />
        </mxCell>
        <mxCell id="FscEr2D0NZWF_tFsPN3c-26" value="&lt;span style=&quot;color: rgb(0, 0, 0); font-family: Helvetica; font-size: 12px; font-style: normal; font-variant-ligatures: normal; font-variant-caps: normal; font-weight: 400; letter-spacing: normal; orphans: 2; text-align: center; text-indent: 0px; text-transform: none; widows: 2; word-spacing: 0px; -webkit-text-stroke-width: 0px; white-space: normal; text-decoration-thickness: initial; text-decoration-style: initial; text-decoration-color: initial; float: none; display: inline !important;&quot;&gt;The 3rd component is this Container (called &quot;main&quot;) that contains the Reader and the Writer and contains the wiring (routing connections) between the children components (Reader and Writer)&lt;/span&gt;" style="shape=note;whiteSpace=wrap;html=1;backgroundOutline=1;fontColor=#000000;darkOpacity=0.05;fillColor=#FFF9B2;strokeColor=none;fillStyle=solid;direction=west;gradientDirection=north;gradientColor=#FFF2A1;shadow=1;size=20;pointerEvents=1;labelBackgroundColor=none;" vertex="1" parent="1">
          <mxGeometry x="40" y="40" width="140" height="160" as="geometry" />
        </mxCell>
        <mxCell id="FscEr2D0NZWF_tFsPN3c-27" value="The Container must instantiate both components, then send in the &quot;filename&quot; followed by a &quot;go&quot; trigger (in that order)" style="shape=note;whiteSpace=wrap;html=1;backgroundOutline=1;fontColor=#000000;darkOpacity=0.05;fillColor=#FFF9B2;strokeColor=none;fillStyle=solid;direction=west;gradientDirection=north;gradientColor=#FFF2A1;shadow=1;size=20;pointerEvents=1;" vertex="1" parent="1">
          <mxGeometry x="240" y="90" width="140" height="100" as="geometry" />
        </mxCell>
      </root>
    </mxGraphModel>
  </diagram>
</mxfile>
